<svg xmlns="http://www.w3.org/2000/svg" fill="none" viewBox="0 0 34 31">
  <path d="M27.635 28.593c3.452.004 5.955-2.806 6.363-5.575.05-3.528-3.078-6.64-7.123-6.64-1.57 0-3.052.445-4.296 1.204l1.211 2.852c1.825-1.464 4.914-1.301 6.455.335 2.603 2.334 1.6 7.44-2.61 7.824z" fill="#3AA853"/>
  <path d="M10.939 14.888c-.173-2.889-.503-6.42-1.699-9.314-.369-1.06-.86-2.07-1.56-2.938C6.693 1.408 5.282.415 3.214 0c8.295.91 10.181 7.407 10.927 13.783-1.06.372-2.125.754-3.201 1.105z" fill="#F3BD30"/>
  <path d="M.115 23.595c.27-1.376 1.01-2.827 2.334-4.209 1.942-1.898 4.476-3.075 8.517-4.508l3.174-1.096 2.178-.7.009 3.461c-.695.215-1.398.406-2.096.606l-3.432 1.075c-9.714 3.195-8.886 9.554-6.08 10.634.667.291 1.473.132 1.771.023C3.248 30.41-.6 27.24.115 23.595zM9.467 6.158c-1.073-2.592-3.09-4.051-5.042-3.306L3.213 0c2.068.415 3.48 1.408 4.468 2.636.877 1.089 1.327 2.234 1.786 3.522z" fill="#6E69AE"/>
  <path d="M21.885 4.308c3.595-5.696 8.646-1.66 5.642 2.768.131-.157.26-.331.386-.52 3.836-5.028-1.194-8.858-6.366-4.92-1.411 1.073-2.616 2.633-3.52 4.533-3.654 7.687-1.885 21.557 7.544 23.847a6.934 6.934 0 002.369.176c3.865-.41 6.225-3.84 6.051-7.552-.555 3.593-3.576 5.716-6.463 5.951-1.356.045-2.767-.436-4.033-1.558-4.96-4.395-4.58-18.021-1.61-22.725z" fill="#108BC6"/>
  <path d="M19.827 11.852c2.984-.933 5.758-2.295 7.704-4.78l.359-.486c1.094-1.453 2.092-4.452.154-5.9 3.79 2.34 3.602 10.437-8.337 14.804a32.05 32.05 0 01.12-3.638z" fill="#6E69AE"/>
  <path d="M11.714 26.02c-1.61 2.483-3.868 4.054-6.453 4.197-2.8.154-5.101-2.42-5.255-5.081-.02-.364.014-.702.04-1.065.008-.078.014-.158.028-.238-.313 4.408 5.18 7.325 7.99 3.812 1.25-1.564 2.398-4.467 2.733-9.394l.002-.027 3.432-1.075-.01.186c-.167 3.092-.954 6.294-2.507 8.685z" fill="#F3BD30"/>
</svg>
