<svg xmlns="http://www.w3.org/2000/svg" fill="none" viewBox="0 0 72 52">
  <path d="M7.925 36.863c-2.48 0-4.433.9-4.433 3.753v5.114c0 2.853 1.953 3.774 4.433 3.774 2.26 0 5.092-.702 5.092-2.677 1.843 3.423-2.085 4.301-5.092 4.301-3.226 0-6.277-1.317-6.277-5.07v-5.75c0-3.752 3.05-5.069 6.277-5.069 3.007 0 6.935.878 5.092 4.302 0-1.756-2.832-2.678-5.092-2.678zM24.08 47.266c.396.57.571 1.075.571 1.536 0 1.536-2.063 2.326-4.213 2.326-2.787 0-4.521-1.317-4.521-3.533v-4.433c0-2.217 1.646-3.534 4.433-3.534s4.17 1.317 4.17 3.314c0 1.778-1.207 3.248-4.433 3.248-.747 0-1.888-.153-2.415-.526v1.602c0 1.536.856 2.326 2.897 2.326 1.91 0 3.512-.79 3.512-2.326zm-6.407-3.775v.768c.021.044 1.338.395 2.282.395 2.085 0 2.809-.636 2.809-1.712 0-1.119-.614-1.887-2.414-1.887-1.953 0-2.678.9-2.678 2.436zm16.652 6.43V43.25c0-1.36-.702-2.15-2.655-2.15-1.602 0-2.634.46-2.634.46v9.46s-1.755 0-1.755-1.098V39.738c.505.264.987.351 1.426.351 1.054 0 2.02-.46 3.27-.46 1.997 0 4.104.702 4.104 3.291v8.099s-1.756-.023-1.756-1.098zm4.829-2.326V37.28s1.756.022 1.756 1.12v1.821h4.586s-.022 1.514-1.097 1.514h-3.49v5.245c0 1.58.55 2.612 2.283 2.612 1.514 0 2.81-.834 2.81-2.326.416.614.592 1.163.592 1.624 0 1.492-1.8 2.238-3.578 2.238-2.348 0-3.862-1.317-3.862-3.533zm12.971-6.408a6.363 6.363 0 00-2.107.373v9.459s-1.755 0-1.755-1.098V39.738c.504.264.943.351 1.338.351.922 0 1.668-.46 2.875-.46 1.536 0 2.59.592 2.59 1.777 0 .527-.198.988-.615 1.558 0-1.207-1.053-1.777-2.326-1.777zm10.564 7.944v-4.323c-.417 1.47-5.201.505-5.201 3.116 0 .966.724 1.8 2.611 1.8 1.602 0 2.59-.593 2.59-.593zm-6.957-1.229c0-4.236 6.123-2.721 6.89-4.828 0-1.12-.504-1.91-2.545-1.91-2.04 0-3.423.79-3.423 2.327-.417-.593-.593-1.141-.593-1.602 0-1.492 1.887-2.26 4.016-2.26 2.787 0 4.302 1.316 4.302 3.533v7.857a3.612 3.612 0 00-1.449-.286c-1.01 0-1.931.395-3.138.395-1.997 0-4.06-.856-4.06-3.226zm11.495 0V34.427c.11 0 1.756.022 1.756 1.098V47.2c0 1.317.395 3.27 1.58 3.27-.461.395-.9.549-1.295.549-1.405 0-2.041-1.449-2.041-3.117z" fill="#353635"/>
  <path d="M14.146 15.274H6.47V22.8h13.431c0 .263-.075 4.552-3.499 4.552H4.853S0 27.351 0 24.454V0h19.902s0 4.59-3.499 4.59H6.471v6.095h7.073c3.724 0 4.853-.602 4.853-.602 0 2.596-.527 5.191-4.251 5.191zm31.152-6.997c0 3.95-2.446 7.148-6.81 7.223 4.74 3.123 6.057 7.6 8.841 11.55 0 0-2.295.602-3.198.602-1.58 0-3.762-.489-5.116-2.671-1.543-2.446-3.461-7.186-7.186-8.804v11.55s-6.47-.113-6.47-2.896V0H34.8c6.095 0 10.497 1.73 10.497 7.148v1.129zM34.8 4.59h-2.97v6.81h3.273c2.747 0 3.725-1.205 3.725-3.688 0-2.445-1.317-3.122-4.026-3.122zm16.798 20.24V0h8.314c6.358 0 12.002 1.58 12.002 9.105v.677c0 7.336-5.644 9.255-12.002 9.255H58.07v8.69s-6.471 0-6.471-2.896zm8.314-20.24H58.07v9.857h1.843c3.236 0 5.53-.564 5.53-5.004 0-4.1-2.294-4.853-5.53-4.853z" fill="#010101"/>
</svg>
