<svg xmlns="http://www.w3.org/2000/svg" fill="none" viewBox="0 0 34 34">
  <path d="M27.355 18.373h.002c-.364-1.699-1.214-3.424-2.489-4.556-.715-.635-2.008-1.315-3.074-1.252-.182.011-.358.04-.528.096-2.025.697.12 3.78.443 4.907.448 1.58-.108 3.337-1.192 4.572a6.981 6.981 0 01-.913.862c-2.087 1.632-5.35 2.38-7.703 1.286-.414-.192-.8-.39-1.157-.6a10.9 10.9 0 01-.953-.607c-.987-.702-1.73-1.495-2.28-2.396a8.411 8.411 0 01-.829-1.836 9.443 9.443 0 01-.125-.425c-.329-1.23-.46-2.623-.465-4.21-.017-3.343 1.407-6.85 3.71-9.258 1.452-1.514 2.899-2.5 4.515-3.372.409-.221.834-.436 1.271-.646.272-.13.55-.267.834-.397.19-.09.381-.173.573-.253.147-.061.107-.281-.052-.285h-.01c-.687-.011-1.379.006-2.054.13a6.185 6.185 0 00-.71.17c-3.329 1.032-6.205 3.95-8.003 6.873-1.798 2.924-2.655 6.137-2.519 9.435.097 2.385.75 4.765 2.048 6.77.851 1.315 2.003 2.477 3.455 3.066 1.803.737 3.84.516 5.746.918.516.108 1.055.283 1.367.703 1.416 1.877-1.821 3.033-2.95 3.493a.032.032 0 01-.012.003h-.01c-.117.035-.24.074-.364.113a10.335 10.335 0 01-.788.204c-.369.08-.743.13-1.089.124.42.012.845.034 1.265.034h.142c.238 0 .482-.005.72-.022.13-.006.261-.017.392-.029 2.592-.203 5.139-1.064 7.362-2.396 3.29-1.966 6.495-5.105 6.62-9.162a8.463 8.463 0 00-.195-2.057zM13.002 31.699H13a.02.02 0 00-.004-.005.03.03 0 01.01 0c.002.002.001.005-.002.005h-.003z" fill="#189CD8"/>
  <path d="M13.918 30.308a.004.004 0 00-.006-.005c-1.382.593-2.933.78-4.416.915-.556.051-1.611-.028-1.929-.051a.246.246 0 01-.152-.059l-.16-.128a4.33 4.33 0 00-.306-.232 17.68 17.68 0 01-.806-.624 107.9 107.9 0 00-.119-.102l-.113-.096c-.029-.023-.051-.045-.08-.068-.05-.045-.102-.085-.153-.13-.04-.034-.073-.068-.113-.102a3.432 3.432 0 01-.21-.199c-.034-.034-.074-.068-.108-.102l-.028-.028c-.046-.045-.091-.085-.136-.13l-.142-.142-.142-.141c-.045-.046-.09-.097-.142-.142-.062-.062-.119-.125-.181-.193-.046-.05-.091-.096-.136-.147l-.137-.153-.113-.13-.085-.102c-.029-.029-.051-.063-.08-.091-.028-.028-.05-.062-.079-.09-.057-.075-.12-.142-.176-.216-.017-.023-.034-.04-.051-.062-.047-.063-.093-.12-.14-.181a1.642 1.642 0 00-.026-.034l-.008-.011c-.033-.044-.071-.088-.104-.137a6.937 6.937 0 01-.198-.272.73.73 0 01-.074-.108l-.085-.119-.086-.123c-.011-.016-.023-.031-.033-.047-.007-.012-.016-.022-.024-.033-.029-.041-.054-.085-.084-.125l-.125-.193c-.034-.05-.068-.108-.102-.158-.034-.057-.074-.114-.108-.176-.034-.057-.068-.12-.108-.176-.034-.056-.068-.119-.102-.175l-.056-.102c-.034-.067-.075-.13-.11-.196a3.23 3.23 0 00-.032-.06l-.097-.18a2.406 2.406 0 00-.058-.113 4.078 4.078 0 01-.083-.171c-.029-.051-.051-.102-.074-.147-.023-.051-.051-.102-.074-.153l-.068-.148c-.028-.062-.057-.119-.085-.18a364.948 364.948 0 00-.182-.415.216.216 0 01-.002-.004c-.043-.098-.08-.198-.122-.296-.023-.05-.04-.102-.057-.147-.017-.051-.04-.097-.063-.159l-.085-.238-.05-.141c-.01-.034-.024-.067-.035-.101-.004-.012-.005-.022-.008-.035l-.014-.045-.008-.02a.06.06 0 01-.005-.019.043.043 0 00-.003-.008.082.082 0 01-.008-.022l-.006-.023v-.003l-.007-.016-.031-.094c-.023-.068-.046-.135-.063-.204a6.993 6.993 0 01-.05-.175c-.018-.062-.04-.125-.058-.193-.011-.04-.022-.085-.034-.125a4.8 4.8 0 01-.05-.192c-.018-.062-.035-.13-.052-.193-.011-.034-.017-.073-.028-.107-.012-.035-.017-.074-.029-.108l-.05-.215c-.006-.035-.018-.074-.023-.108-.006-.034-.017-.074-.023-.108l-.013-.068a.245.245 0 01-.004-.045c0-.017-.006-.029-.011-.051-.006-.028-.012-.051-.017-.08a1.147 1.147 0 01-.023-.136v-.012a.634.634 0 00-.008-.045l-.004-.033c-.001-.012-.006-.023-.009-.035a1.51 1.51 0 01-.024-.158l-.034-.227-.035-.232a6.12 6.12 0 00-.034-.232c-.01-.074-.017-.142-.028-.216-.006-.073-.017-.141-.023-.215v-.051c-.002-.023-.005-.045-.005-.068v-.102c0-.045-.006-.09-.012-.142a1.861 1.861 0 00-.017-.238v-.079c0-.051-.005-.096-.011-.159 0-.062-.006-.124-.011-.192 0-.074 0-.148-.006-.221v-1.263l.001-.08c.002-.034.005-.068.005-.102 0-.045.005-.096.011-.142v-.124l.001-.057.006-.08.006-.078.003-.03.01-.1.008-.069c.006-.08.017-.153.023-.232 0-.057.012-.114.022-.17a.74.74 0 00.006-.034c0-.04.011-.08.017-.12v-.039c0-.04.011-.074.017-.113v-.034c0-.04.011-.08.017-.12l.002-.023c.005-.022.01-.044.01-.067v-.023a.868.868 0 01.022-.13c.012-.062.023-.119.029-.181l.017-.108c.005-.045.017-.096.028-.141.006-.046.017-.091.028-.136.012-.063.023-.125.04-.188l.032-.141a.103.103 0 00.002-.023 40.31 40.31 0 00.034-.164c.011-.057.028-.12.04-.176.005-.028.011-.056.023-.102.01-.05.022-.096.04-.147.016-.068.039-.142.056-.21s.04-.141.057-.21c.022-.067.04-.14.062-.209.023-.068.04-.136.062-.21l.069-.204.068-.204c.011-.028.017-.056.034-.102l.034-.101.017-.051c.017-.051.034-.102.056-.153.023-.069.052-.137.08-.205.028-.068.051-.136.08-.198.107-.266.22-.527.34-.787.028-.063.062-.13.09-.193.029-.062.063-.13.091-.193.029-.056.057-.119.085-.175.017-.04.04-.074.057-.114l.074-.141c.022-.04.04-.08.062-.12l.068-.13c.023-.034.04-.073.063-.107l.09-.159c.034-.062.068-.119.108-.181l.03-.051c.007-.011.011-.024.02-.033a.098.098 0 00.012-.015l.08-.134.136-.22c.036-.052.067-.103.102-.158.007-.012.014-.026.023-.036a.084.084 0 00.01-.01l.126-.193c.045-.068.09-.136.136-.198.045-.063.09-.13.142-.199.102-.141.204-.278.306-.413l.051-.069a3.963 3.963 0 01.204-.254c.014-.014.026-.03.039-.046.015-.02.03-.04.047-.056.022-.029.05-.063.085-.102.011-.012.022-.029.034-.04.034-.045.073-.09.113-.13l.046-.051.083-.098c.027-.03.053-.061.081-.09l.148-.164c.05-.062.107-.119.164-.181a17.6 17.6 0 01.862-.856c.108-.096.21-.192.33-.3.062-.057.13-.113.192-.164.015-.016.032-.028.048-.043a4.72 4.72 0 00.19-.161c.063-.057.125-.102.187-.153.014-.013.031-.023.045-.035.016-.014.033-.03.052-.044.045-.04.096-.074.142-.108a.147.147 0 01.016-.014l.034-.027.011-.008.075-.059.039-.029c.011-.008.022-.013.032-.022l.015-.01.046-.034.02-.013a.09.09 0 00.01-.008.109.109 0 01.017-.013l.015-.011a.52.52 0 00.02-.014c.013-.01.028-.02.04-.031a.169.169 0 01.017-.015l.234-.168c.045-.028.085-.062.13-.09.046-.029.091-.063.136-.091.046-.029.091-.063.13-.091.04-.029.08-.051.12-.08.187-.118.374-.237.567-.35.034-.023.068-.04.102-.063l.165-.096c.057-.034.113-.063.164-.097.029-.017.057-.028.085-.045.029-.017.057-.028.086-.045.056-.029.113-.063.17-.09.056-.03.113-.063.17-.092a2.683 2.683 0 01.136-.068 2.623 2.623 0 00.13-.062c.029-.011.057-.028.102-.051a2.78 2.78 0 00.188-.09c.181-.086.363-.165.544-.244.136-.057.278-.114.414-.17a17.604 17.604 0 011.362-.47 1.43 1.43 0 00-.097.05c-.192.097-.385.193-.572.295-.596.323-1.17.68-1.72 1.071-.243.17-.476.351-.708.538-3.07 2.448-5.338 6.086-6.257 9.882-.964 3.995-.47 8.686 2.065 12.023 1.157 1.519 2.762 2.72 4.594 3.287 1.027.317 2.06.363 3.126.345.584-.011 1.202-.034 1.753.188.454.18.896.702.64 1.212-.113.221-.334.363-.555.476-.15.078-.301.15-.457.217a.004.004 0 01-.005-.005z" fill="#39B54A"/>
  <path d="M33.995 16.993a.034.034 0 01.006.019 16.938 16.938 0 01-5.27 12.285c-.312.298-.649-.05-.383-.39.97-1.24 1.94-2.636 2.454-3.9 1.894-4.64 1.906-10.295-1.288-14.386-1.753-2.243-4.487-3.841-7.386-4.04-2.898-.198-5.547 1.287-7.533 3.406-.295.317-.601.646-.98.85-1.124.612-2.48-.448-2.049-1.689.16-.453.494-.827.845-1.15 3.92-3.587 9.1-5.541 14.443-4.805.053 0 .101.027.144.059a17.329 17.329 0 012.64 2.383c.02.019.038.039.056.059a16.922 16.922 0 014.296 11.28c0 .007.002.014.005.019z" fill="#EF473C"/>
  <path d="M30.884 18.007a.011.011 0 00-.008.012c.04.524.05 1.06.022 1.589-.3 6.108-4.986 11.808-10.556 14.04a1.114 1.114 0 01-.234.069 16.996 16.996 0 01-3.119.283c-.652 0-1.299-.034-1.929-.108-.079-.011-.158-.017-.238-.028a.308.308 0 01-.045-.003l-.216-.031a2.554 2.554 0 00-.204-.028c-.051-.006-.102-.017-.153-.023-.034 0-.068-.012-.102-.017-.034-.005-.069-.01-.103-.018a.14.14 0 00-.034-.005c-.007 0-.014 0-.022-.002l-.176-.032-.25-.05-.164-.035a12.41 12.41 0 01-.788-.192l-.193-.051c-.051-.012-.102-.029-.153-.046-.057-.017-.108-.034-.165-.05l-.323-.103c-.051-.017-.108-.034-.16-.05-.05-.018-.107-.035-.158-.057-.049-.018-.03-.1.022-.096l.114.01c.051 0 .102.006.16.012h.016c.057 0 .108.005.165.011a.816.816 0 01.124.006h.641c.29 0 .585 0 .874-.012h.017c.147 0 .295-.01.442-.022.103-.006.205-.011.307-.023 3.318-.289 6.557-1.666 9.269-3.604 2.183-1.563 4.021-3.688 4.9-6.22 1.044-3.004.443-6.103-1.316-8.698-1.452-2.142-3.84-3.791-6.506-2.879-.074.023-.142.051-.215.08-2.28.883-1.401 3.155-.692 4.838.879 2.085.136 4.618-1.73 5.921-1.867 1.304-4.612 1.247-6.603.046-1.991-1.201-3.296-3.366-3.744-5.65-.664-3.37.232-7.428 2.24-10.21 2.26-3.127 6.231-5.3 9.901-6.312.014-.003.027-.005.04-.009a.165.165 0 01.075-.007 17.113 17.113 0 013.884 1.187c.437.192.248.835-.229.835-4.078 0-8.1 1.45-11.169 4.148-1.373 1.207-2.984 3.048-1.594 4.844.664.862 1.917 1.219 2.95.901 1.089-.334 1.645-1.377 2.382-2.147 2.53-2.64 6.5-2.652 9.513-.833 3.129 1.885 4.955 5.241 5.24 8.807.001.006-.002.01-.007.012z" fill="#FEC415"/>
</svg>
