<svg xmlns="http://www.w3.org/2000/svg" fill="none" viewBox="0 0 63 56">
  <path d="M50.635 52.392c6.326.007 10.912-5.142 11.659-10.217.093-6.464-5.64-12.165-13.05-12.165-2.878 0-5.593.815-7.873 2.206l2.22 5.227c3.343-2.684 9.003-2.386 11.828.613 4.768 4.276 2.93 13.63-4.784 14.336z" fill="#3AA853"/>
  <path d="M20.043 27.28c-.317-5.294-.92-11.764-3.112-17.068-.676-1.942-1.576-3.791-2.858-5.383C12.263 2.58 9.676.76 5.888 0 21.087 1.669 24.543 13.572 25.91 25.254c-1.945.683-3.894 1.381-5.867 2.025z" fill="#F3BD30"/>
  <path d="M.21 43.233c.495-2.52 1.85-5.18 4.277-7.711 3.56-3.479 8.202-5.635 15.606-8.26l5.816-2.008 3.991-1.285.015 6.344c-1.272.394-2.56.743-3.84 1.109l-6.289 1.97C1.988 39.246 3.506 50.899 8.646 52.876c1.223.534 2.7.242 3.246.044C5.952 55.719-1.1 49.91.21 43.233zm17.137-31.949c-1.967-4.75-5.663-7.424-9.24-6.058L5.888 0c3.79.76 6.375 2.58 8.186 4.83 1.608 1.995 2.432 4.093 3.273 6.453v.001z" fill="#6E69AE"/>
  <path d="M40.1 7.893c6.587-10.436 15.843-3.04 10.337 5.072.241-.287.479-.607.708-.952 7.028-9.214-2.187-16.231-11.665-9.017-2.585 1.968-4.792 4.827-6.448 8.308-6.696 14.085-3.455 39.498 13.821 43.694 1.48.36 2.944.471 4.341.323 7.083-.752 11.407-7.036 11.088-13.838-1.017 6.583-6.553 10.473-11.842 10.905-2.485.081-5.07-.8-7.39-2.855-9.09-8.053-8.391-33.021-2.95-41.64z" fill="#108BC6"/>
  <path d="M36.329 21.717c5.468-1.71 10.55-4.206 14.116-8.76l.657-.889c2.005-2.663 3.835-8.159.282-10.812 6.944 4.287 6.6 19.124-15.274 27.126-.054-2.251.023-4.5.219-6.665z" fill="#6E69AE"/>
  <path d="M21.464 47.677c-2.951 4.549-7.088 7.427-11.823 7.69-5.13.281-9.348-4.433-9.63-9.311-.037-.666.025-1.285.074-1.95.014-.144.026-.29.05-.437-.572 8.076 9.491 13.422 14.639 6.985 2.291-2.866 4.396-8.184 5.009-17.212l.003-.05 6.289-1.97-.018.342c-.307 5.665-1.748 11.531-4.593 15.913z" fill="#F3BD30"/>
</svg>
