<svg xmlns="http://www.w3.org/2000/svg" fill="none" viewBox="0 0 54 54">
  <path d="M42.882 28.8c0 .002.003.001.003 0-.57-2.662-1.904-5.367-3.902-7.14-1.12-.996-3.148-2.061-4.82-1.964a3.29 3.29 0 00-.827.151c-3.174 1.093.187 5.925.694 7.692.703 2.478-.169 5.232-1.867 7.168-.418.48-.907.933-1.432 1.35-3.272 2.558-8.385 3.73-12.075 2.017a21.478 21.478 0 01-1.814-.942 17.178 17.178 0 01-1.494-.95c-1.547-1.101-2.712-2.345-3.575-3.757a13.183 13.183 0 01-1.298-2.878 15.728 15.728 0 01-.196-.666c-.515-1.928-.72-4.113-.729-6.6-.026-5.24 2.205-10.738 5.816-14.513 2.276-2.372 4.544-3.918 7.078-5.285a46.36 46.36 0 011.992-1.013c.426-.204.862-.417 1.307-.622.298-.14.598-.271.899-.397.229-.096.167-.44-.081-.446h-.018c-1.076-.018-2.16.008-3.219.204a9.698 9.698 0 00-1.111.266c-5.22 1.617-9.728 6.191-12.547 10.775-2.82 4.583-4.162 9.619-3.948 14.788.15 3.74 1.173 7.47 3.21 10.615 1.333 2.06 3.139 3.881 5.415 4.805 2.828 1.155 6.02.808 9.008 1.44.809.168 1.654.443 2.143 1.1 2.219 2.944-2.855 4.755-4.624 5.477a.05.05 0 01-.02.003l-.014.002a20.36 20.36 0 00-.571.176 17.42 17.42 0 01-1.022.275 1.776 1.776 0 01-.214.045c-.578.124-1.165.204-1.707.195.658.018 1.325.053 1.983.053h.222c.373 0 .756-.008 1.13-.035.204-.009.408-.027.613-.044 4.064-.32 8.056-1.67 11.542-3.758 5.157-3.082 10.181-8.002 10.377-14.362a13.274 13.274 0 00-.31-3.223c0-.002.003-.003.003-.001zM20.381 49.69l-.003.001a.033.033 0 00-.006-.009c.005 0 .01 0 .016.002.004.002.002.007-.002.007h-.005z" fill="#189CD8"/>
  <path d="M21.817 47.511c.002-.005-.004-.01-.009-.008-2.166.928-4.598 1.22-6.923 1.434-.87.08-2.525-.044-3.023-.08a.386.386 0 01-.238-.092 37.12 37.12 0 01-.251-.201 6.793 6.793 0 00-.48-.364 27.767 27.767 0 01-1.263-.978 90.984 90.984 0 00-.187-.16l-.177-.15c-.045-.036-.08-.072-.125-.107-.08-.071-.16-.133-.24-.205-.062-.053-.115-.106-.178-.16l-.028-.024a5.431 5.431 0 01-.3-.287c-.054-.053-.116-.106-.17-.16l-.044-.043c-.071-.071-.142-.134-.214-.205l-.222-.222-.222-.222c-.071-.071-.143-.15-.223-.222-.097-.097-.186-.195-.284-.302-.071-.08-.142-.15-.213-.23l-.214-.24a24.399 24.399 0 01-.178-.205l-.133-.16c-.045-.044-.08-.097-.125-.142-.044-.044-.08-.098-.124-.142-.089-.116-.187-.222-.276-.337-.027-.036-.053-.063-.08-.098-.073-.098-.146-.187-.219-.283a2.318 2.318 0 00-.04-.053.102.102 0 01-.013-.018c-.052-.069-.112-.138-.164-.214-.106-.143-.213-.285-.31-.427a1.15 1.15 0 01-.116-.169l-.134-.186c-.045-.068-.09-.129-.135-.194-.016-.025-.035-.048-.05-.074-.011-.018-.026-.034-.038-.051-.045-.065-.086-.134-.132-.196-.063-.098-.134-.205-.196-.303-.054-.08-.107-.168-.16-.248-.054-.089-.116-.178-.169-.275-.053-.089-.107-.187-.17-.275-.052-.09-.106-.187-.16-.276-.026-.044-.052-.098-.088-.16-.052-.104-.117-.203-.172-.306a4.838 4.838 0 00-.05-.093c-.054-.098-.098-.187-.151-.284l-.091-.177a6.37 6.37 0 01-.132-.268c-.044-.08-.08-.16-.115-.23-.036-.08-.08-.16-.116-.24-.036-.08-.071-.151-.107-.232-.044-.097-.089-.186-.133-.284a573.814 573.814 0 00-.284-.648l-.004-.007c-.068-.153-.124-.311-.192-.464-.036-.08-.062-.16-.09-.23-.026-.08-.061-.152-.097-.25l-.133-.373c-.027-.07-.053-.15-.08-.222-.015-.052-.037-.105-.054-.157-.006-.02-.007-.035-.013-.054-.007-.022-.013-.05-.021-.07l-.013-.033c-.004-.01-.006-.02-.008-.03a.073.073 0 00-.005-.013.129.129 0 01-.012-.033l-.009-.036a.05.05 0 00-.001-.006c-.003-.008-.008-.016-.01-.024l-.05-.147c-.035-.107-.071-.213-.098-.32a11.213 11.213 0 01-.08-.275c-.026-.098-.062-.196-.089-.302l-.053-.196a9.22 9.22 0 01-.08-.302c-.027-.097-.054-.204-.08-.302-.018-.053-.027-.115-.044-.169-.018-.053-.027-.115-.045-.168l-.08-.338c-.01-.053-.027-.116-.036-.169-.009-.053-.026-.115-.035-.169l-.02-.107A.386.386 0 01.489 32c0-.027-.009-.045-.018-.08l-.026-.125a1.8 1.8 0 01-.036-.213v-.02a.997.997 0 00-.012-.07L.39 31.44c-.002-.019-.01-.037-.013-.055a2.57 2.57 0 01-.04-.248c-.017-.116-.035-.231-.052-.355l-.054-.365c-.018-.124-.035-.248-.053-.364-.018-.115-.027-.222-.045-.337-.008-.116-.026-.222-.035-.338 0-.026 0-.053-.002-.08-.003-.035-.007-.07-.007-.106v-.16c0-.071-.009-.143-.018-.222a2.917 2.917 0 00-.026-.374v-.124c0-.08-.01-.151-.018-.248 0-.098-.01-.196-.018-.302 0-.116 0-.231-.009-.347v-1.98c0-.043 0-.085.002-.126.002-.053.007-.106.007-.159 0-.07.009-.15.018-.222v-.195l.001-.088.009-.126c.002-.041.007-.082.01-.123l.005-.046.015-.159c.003-.035.008-.071.013-.107.01-.124.027-.24.036-.364 0-.09.018-.178.035-.266l.009-.053c0-.063.018-.125.027-.187v-.062c0-.063.018-.116.026-.178v-.053c0-.062.018-.124.027-.186 0-.014.001-.027.004-.038.006-.035.014-.07.014-.105v-.035c.009-.071.018-.142.036-.204.017-.098.035-.187.044-.285.009-.053.018-.106.027-.169.009-.07.026-.15.044-.222.009-.07.027-.142.045-.213.017-.098.035-.195.062-.293l.05-.222a.16.16 0 00.003-.035.16.16 0 01.004-.036l.05-.222c.017-.089.044-.187.062-.275.009-.045.017-.09.035-.16a2.47 2.47 0 01.062-.231c.027-.107.063-.222.09-.329.026-.106.062-.222.088-.329.036-.106.063-.221.098-.328.036-.107.062-.213.098-.329l.107-.32.106-.32c.018-.044.027-.088.054-.16l.053-.159.027-.08c.026-.08.053-.16.089-.24.035-.107.08-.213.124-.32.045-.106.08-.213.125-.31.169-.418.347-.826.533-1.235.045-.098.098-.204.142-.302.045-.098.098-.204.143-.302l.133-.275c.027-.063.062-.116.089-.178l.116-.222c.035-.062.062-.125.098-.187.035-.07.07-.133.106-.204.036-.053.062-.115.098-.168.044-.08.098-.17.142-.25a4.67 4.67 0 01.17-.284c.013-.026.03-.053.047-.08.01-.017.017-.036.03-.05a.157.157 0 00.019-.024c.042-.068.084-.143.125-.21l.214-.346c.056-.08.105-.16.16-.247.011-.018.021-.04.036-.056a.132.132 0 00.015-.018l.198-.301c.071-.107.142-.213.213-.31.071-.098.143-.205.223-.312.16-.222.32-.435.48-.648l.08-.107a6.162 6.162 0 01.32-.4c.022-.021.04-.047.06-.071.024-.03.047-.061.073-.088a6.86 6.86 0 01.134-.16c.018-.018.035-.045.053-.062a2.18 2.18 0 01.178-.205l.071-.08c.043-.048.086-.101.131-.153.042-.047.082-.095.127-.14l.231-.257c.08-.098.17-.187.258-.284.436-.462.88-.906 1.352-1.342.169-.15.329-.302.515-.47.098-.09.205-.178.303-.258.023-.024.05-.044.075-.067a7.382 7.382 0 00.298-.253c.098-.088.196-.16.293-.24.022-.02.048-.035.07-.054.026-.022.052-.046.082-.07.07-.062.15-.115.222-.169a.226.226 0 01.026-.021c.018-.014.035-.03.053-.043l.017-.012.117-.092c.02-.013.039-.03.061-.046.018-.012.035-.02.051-.035l.023-.016.073-.052.03-.02a.145.145 0 00.015-.013.17.17 0 01.028-.022l.023-.017a.835.835 0 00.032-.021c.02-.015.043-.032.062-.049a.256.256 0 01.027-.023c.12-.085.24-.17.367-.264.07-.044.133-.097.205-.142.07-.044.142-.098.213-.142.071-.044.142-.098.204-.142.063-.045.125-.08.187-.125.293-.186.587-.372.89-.55.053-.036.106-.062.16-.098.088-.053.168-.098.257-.15.09-.054.178-.098.258-.152.044-.026.089-.044.133-.07.045-.027.09-.045.134-.072.089-.044.178-.098.267-.142.089-.045.177-.098.266-.142a4.255 4.255 0 01.213-.106c.049-.022.097-.046.144-.07l.061-.029c.045-.017.09-.044.16-.08.098-.044.196-.088.294-.142.284-.133.569-.257.853-.381.214-.09.436-.178.65-.267a27.584 27.584 0 012.135-.737h-.002a2.202 2.202 0 00-.15.08c-.303.151-.605.302-.899.462a26.22 26.22 0 00-2.694 1.678c-.382.267-.747.551-1.111.844-4.811 3.837-8.368 9.54-9.808 15.49-1.512 6.263-.738 13.617 3.236 18.848 1.814 2.38 4.33 4.264 7.203 5.152 1.61.497 3.228.569 4.9.542.915-.018 1.884-.053 2.747.293.711.284 1.405 1.101 1.005 1.901-.178.346-.525.568-.872.746-.235.122-.471.236-.716.34a.006.006 0 01-.008-.007z" fill="#39B54A"/>
  <path d="M53.29 26.638a.052.052 0 01.01.03c-.005 7.578-3.18 14.41-8.262 19.258-.489.467-1.017-.078-.6-.611 1.519-1.945 3.04-4.133 3.846-6.113 2.97-7.274 2.988-16.14-2.019-22.552-2.747-3.517-7.033-6.022-11.577-6.333-4.544-.31-8.697 2.016-11.809 5.338-.462.498-.943 1.013-1.538 1.333-1.76.959-3.886-.702-3.21-2.648.249-.71.773-1.296 1.325-1.803C25.6 6.915 33.719 3.851 42.095 5.006c.083 0 .16.042.226.091a27.177 27.177 0 014.14 3.737c.03.03.059.06.087.091A26.527 26.527 0 0153.28 26.61c0 .01.003.02.01.029z" fill="#EF473C"/>
  <path d="M48.413 28.228a.018.018 0 00-.012.018c.061.821.078 1.66.034 2.49-.471 9.576-7.816 18.511-16.548 22.01a1.79 1.79 0 01-.366.108 26.648 26.648 0 01-4.89.444c-1.022 0-2.036-.054-3.023-.17-.124-.017-.249-.026-.373-.044a.489.489 0 01-.07-.005l-.34-.048a4.03 4.03 0 00-.32-.044c-.08-.01-.16-.027-.24-.036-.053 0-.106-.018-.16-.026-.053-.008-.107-.016-.16-.03a.222.222 0 00-.053-.006.202.202 0 01-.035-.003 79.325 79.325 0 00-.276-.05l-.391-.08-.258-.054a19.543 19.543 0 01-1.236-.302 15.254 15.254 0 01-.302-.08c-.08-.017-.16-.044-.24-.07-.09-.027-.17-.054-.258-.08-.17-.054-.338-.108-.507-.16-.08-.027-.17-.054-.25-.08-.08-.027-.168-.054-.248-.09-.077-.027-.047-.156.034-.149l.18.016c.08 0 .16.01.248.018h.027c.089 0 .169.009.258.018.041 0 .083 0 .125.005a.725.725 0 00.07.004h1.005c.453 0 .916 0 1.37-.018h.026c.231 0 .463-.018.694-.036.16-.008.32-.017.48-.035 5.202-.453 10.28-2.611 14.53-5.65 3.423-2.45 6.304-5.781 7.682-9.752 1.636-4.707.694-9.566-2.063-13.634-2.276-3.357-6.02-5.942-10.199-4.512-.115.036-.222.08-.338.124-3.574 1.386-2.196 4.948-1.085 7.586 1.379 3.268.214 7.239-2.712 9.282-2.925 2.043-7.229 1.954-10.35.07-3.121-1.882-5.167-5.275-5.869-8.855-1.04-5.284.365-11.644 3.513-16.005 3.541-4.903 9.767-8.31 15.52-9.895.021-.006.041-.008.062-.014a.26.26 0 01.118-.01c.496.086.992.19 1.479.309 1.596.38 3.138.9 4.61 1.55.685.302.388 1.31-.36 1.31-6.393 0-12.697 2.273-17.508 6.501-2.152 1.892-4.677 4.779-2.499 7.594 1.04 1.35 3.006 1.91 4.624 1.413 1.707-.524 2.579-2.159 3.735-3.366 3.966-4.14 10.19-4.157 14.912-1.306 4.904 2.955 7.767 8.216 8.215 13.806a.018.018 0 01-.012.019z" fill="#FEC415"/>
</svg>
